<?xml version="1.0" standalone="no"?>
<!DOCTYPE svg PUBLIC "-//W3C//DTD SVG 20010904//EN"
 "http://www.w3.org/TR/2001/REC-SVG-20010904/DTD/svg10.dtd">
<svg version="1.0" xmlns="http://www.w3.org/2000/svg"
 width="1024.000000pt" height="1024.000000pt" viewBox="0 0 1024.000000 1024.000000"
 preserveAspectRatio="xMidYMid meet">
<metadata>
Created by potrace 1.11, written by Peter Selinger 2001-2013
</metadata>
<g transform="translate(0.000000,1024.000000) scale(0.100000,-0.100000)"
fill="#000000" stroke="none">
<path d="M0 5120 l0 -5120 3175 0 3175 0 2 1616 3 1616 24 19 c22 18 45 19
466 19 407 0 445 -1 464 -17 12 -10 138 -216 280 -458 143 -242 266 -441 274
-443 9 -2 99 142 268 430 139 238 266 445 281 461 l26 27 446 0 c433 0 447 -1
466 -20 20 -20 20 -33 20 -1635 l0 -1615 435 0 435 0 0 5120 0 5120 -5120 0
-5120 0 0 -5120z"/>
<path d="M7340 871 l0 -871 525 0 525 0 0 865 c0 697 -2 865 -13 865 -7 0 -87
-125 -177 -277 -90 -153 -179 -293 -196 -310 l-32 -33 -106 0 c-101 0 -107 1
-136 28 -17 15 -106 155 -199 311 -92 157 -173 287 -179 289 -9 3 -12 -211
-12 -867z"/>
</g>
</svg>
