<?xml version="1.0" encoding="utf-8"?>
<!-- Generator: Adobe Illustrator 21.1.0, SVG Export Plug-In . SVG Version: 6.00 Build 0)  -->
<svg version="1.1" xmlns="http://www.w3.org/2000/svg" xmlns:xlink="http://www.w3.org/1999/xlink" x="0px" y="0px"
	 viewBox="0 0 1600 900" style="enable-background:new 0 0 1600 900;" xml:space="preserve">
<style type="text/css">
	.st0{display:none;}
	.st1{display:inline;}
	.st2{fill:#C8E8E7;}
	.st3{fill:#0292D1;stroke:#000000;stroke-miterlimit:10;}
	.st4{fill:#16052D;stroke:#000000;stroke-miterlimit:10;}
	.st5{display:inline;opacity:0.36;fill:#869093;}
	.st6{display:inline;opacity:0.49;fill:#869093;}
	.st7{display:inline;opacity:0.67;fill:#869093;}
	.st8{display:inline;opacity:0.52;fill:#869093;}
	.st9{display:inline;opacity:0.45;fill:#869093;}
	.st10{display:inline;opacity:0.61;fill:#869093;}
	.st11{display:inline;fill:#869093;}
	.st12{display:inline;opacity:0.36;fill:#EAE6A4;}
	.st13{display:inline;fill:#848484;}
	.st14{fill:#848484;}
	.st15{fill:#7C7C7C;}
	.st16{fill:#C1C1C1;}
	.st17{fill:#D8D8D8;}
	.st18{display:inline;fill:#C3C2C4;}
	.st19{fill:#F28D16;}
	.st20{fill:#DD7212;}
	.st21{fill:#F7B279;}
	.st22{fill:#494949;}
	.st23{fill:#383838;}
	.st24{fill:#A5A5A5;}
	.st25{fill:#2E893B;}
	.st26{fill:#3EB554;}
	.st27{display:inline;fill:#A0A0A0;}
	.st28{display:inline;fill:#00A4FF;}
	.st29{display:inline;fill:#B2B2B2;}
	.st30{fill:#AAAAAA;}
	.st31{fill:#B7B7B7;}
	.st32{display:inline;fill:#0E8BC1;}
	.st33{display:inline;fill:#7FCAE5;}
	.st34{fill:#704311;}
	.st35{fill:#9E754C;}
	.st36{fill:#915D2D;}
	.st37{display:inline;fill:none;}
	.st38{fill:#26351D;}
	.st39{fill:#232323;}
	.st40{fill:#1E2B16;}
	.st41{fill:#262824;}
	.st42{fill:#1B2813;}
	.st43{fill:#242D1E;}
	.st44{fill:#3D3D3D;}
	.st45{fill:#AD0025;}
	.st46{fill:#FFFFFF;}
	.st47{fill:#4FBF4F;}
	.st48{fill:#50A050;}
	.st49{display:inline;fill:#47B859;}
	.st50{fill:none;stroke:#47B759;stroke-width:60;stroke-miterlimit:10;}
	.st51{fill:#47B759;}
</style>
<g id="baggrundsfarve" class="st0">
	<g class="st1">
		<rect x="-26.5" y="-24.5" class="st2" width="1663" height="946"/>
		<path d="M1636-24v945H-26V-24H1636 M1637-25H-27v947h1664V-25L1637-25z"/>
	</g>
</g>
<g id="Layer_8">
	<polygon class="st3" points="774.9,-106 779.7,1037.5 1693.2,1037.5 1662.1,-94.6 	"/>
	<path class="st4" d="M921.9-49.7c0,0,2.8,362.1-19.2,522.7c-21.9,160.6-9.3,409.7,19.5,470.2s-998.8,35.6-998.8,35.6L-22-68.7
		L921.9-49.7z"/>
</g>
<g id="baggrund" class="st0">
	<path class="st5" d="M10-151c0,0,77,472,323,607s520,221,565,152s23-191,84-270s-47-113-97-242s-41-219-202-219S10-151,10-151z"/>
	<path class="st6" d="M314,8.8c0,0-124,77.1,59,103.5s253,18.5,320-33.6c122.6-95.3-96-49.4-156-78.5c-43.2-20.9-25,61.3-99,34.3
		S373-11.6,314,8.8z"/>
	<path class="st7" d="M166-6c0,0-124,117,59,157S363,45,548,86s76-79,24-92S364,74,290,33S225-37,166-6z"/>
	<path class="st8" d="M396.1,83c0,0-112.1,117,53.3,157s124.8-106,292-65s68.7-79,21.7-92c-47-13-188,80-254.9,39S449.4,52,396.1,83
		z"/>
	<path class="st8" d="M574.1,121c0,0-112.1,117,53.3,157s10.3-73,177.6-32s73-112,26-125s-77.9,80-144.8,39S627.4,90,574.1,121z"/>
	<path class="st8" d="M761.8,343.2c0,0-84.3,83,40.1,111.3s7.8-51.8,133.5-22.7s54.9-79.4,19.5-88.6c-35.3-9.2-58.6,56.7-108.9,27.7
		C795.8,341.8,801.9,321.2,761.8,343.2z"/>
	<path class="st9" d="M704.2,381.5c0,0,146.7-86.9-23-166.1s-157.9,73-329.4-7.7s-91.5,60.3-43.7,84.5s220.5-32.3,283.7,24
		S639.8,398.8,704.2,381.5z"/>
	<path class="st7" d="M864.9,419.5c0,0,146.7-86.9-23-166.1s-157.9,73-329.4-7.7s-91.5,60.3-43.7,84.5s220.5-32.3,283.7,24
		S800.6,436.8,864.9,419.5z"/>
	<path class="st8" d="M645.4,337.5c0,0,135.1-89.5-17.5-164.9s-145,76-299.2-0.8s-84.4,61.9-41.4,85s201-36.7,257.3,18
		C600.8,329.5,586.5,356,645.4,337.5z"/>
	<path class="st8" d="M473.8,220.9c0,0,135.1-89.5-17.5-164.9s-26.2,68.9-180.3-7.9s-95.9,93.2-52.9,116.2s43.6-10.1,99.8,44.7
		S415,239.4,473.8,220.9z"/>
	<path class="st8" d="M307.8,263.9c0,0,135.1-89.5-17.5-164.9s-26.2,68.9-180.3-7.9s-95.9,93.2-52.9,116.2s93.6-60.9,149.9-6.2
		S249,282.4,307.8,263.9z"/>
	<path class="st10" d="M826.2,560.5c0,0,146.7-86.9-23-166.1s-157.9,73-329.4-7.7s-91.5,60.3-43.7,84.5s220.5-32.3,283.7,24
		S761.8,577.8,826.2,560.5z"/>
	<path class="st11" d="M729.2,545.5c0,0,146.7-86.9-23-166.1s-157.9,73-329.4-7.7s-91.5,60.3-43.7,84.5s220.5-32.3,283.7,24
		S664.8,562.8,729.2,545.5z"/>
	<path class="st8" d="M608.4,445.5c0,0,135.1-89.5-17.5-164.9s-145,76-299.2-0.8s-84.4,61.9-41.4,85s201-36.7,257.3,18
		S549.5,464,608.4,445.5z"/>
	<path class="st8" d="M473.8,376.9c0,0,135.1-89.5-17.5-164.9s-26.2,68.9-180.3-7.9s-95.9,93.2-52.9,116.2S281.8,291.3,338,346
		S415,395.4,473.8,376.9z"/>
	<polygon class="st12" points="1139.7,523.1 672.3,-144.4 762.2,-216.1 1314.1,393.8 	"/>
	<polygon class="st12" points="1277.7,518.1 810.3,-149.4 900.2,-221.1 1452.1,388.8 	"/>
	<polygon class="st12" points="1139.7,682.1 672.3,14.6 762.2,-57.1 1314.1,552.8 	"/>
	<polygon class="st12" points="1412.7,441.1 945.3,-226.4 1035.2,-298.1 1587.1,311.8 	"/>
	<polygon class="st12" points="1598.7,398.1 1131.3,-269.4 1221.2,-341.1 1773.1,268.8 	"/>
	<polygon class="st12" points="1733.7,381.1 1266.3,-286.4 1356.2,-358.1 1908.1,251.8 	"/>
	<polygon class="st12" points="1550.7,398.1 1083.3,-269.4 1173.2,-341.1 1725.1,268.8 	"/>
</g>
<g id="mellemgrund_x5F_objekter" class="st0">
	<polygon class="st13" points="180,96 131.8,167.8 190.5,226.4 	"/>
	<g class="st1">
		<polygon class="st14" points="0.9,-106 -30.8,-52.9 3.7,-15 		"/>
		<polygon class="st14" points="76,-0.8 46.6,49.2 80,69.2 		"/>
		<polygon class="st14" points="125,59.1 83.2,98.4 132,121 		"/>
		<path class="st15" d="M-48-143c0,0,187.8,615.6,1082.1,856L-64,713.4L-48-143z"/>
		<path class="st15" d="M0.9-106c0,0,187.8,589,1082.1,819H0.9V-106z"/>
		<path class="st15" d="M75.9-0.8c0,0,132.8,506.7,764.7,704.5H75.9V-0.8z"/>
		<path class="st15" d="M180,95.9c0,0,144.6,437.2,833,607.9H180V95.9z"/>
		<path class="st15" d="M125,59.3c0,0,144.6,472.3,833,656.7H125V59.3z"/>
	</g>
	<g class="st1">
		<path class="st16" d="M1416,170.4c0,0,59,9.6,66,67.6s7,58,7,58l-46,58L1416,170.4z"/>
		<path class="st17" d="M1066,699c0,0,148.5-333.5,140.2-392.5c-8.2-59,54.4-119.2,92.4-122.8s117.1-31.3,143.5,0
			c26.4,31.3,28,226.3,61,278.1c33,51.8,23.1,174.6,39.6,195C1559.3,677.3,1066,699,1066,699z"/>
	</g>
	<path class="st18" d="M1250.4,208.8c0,0,36.9,4.9,88.6-4c51.6-8.9,51.6-8.9,51.6-8.9l7.2-26.8
		C1397.8,169,1269.7,172.3,1250.4,208.8z"/>
</g>
<g id="mellemgrund" class="st0">
	<g class="st1">
		<path class="st19" d="M790.2,686c0,0,123.4,32.2,178.1,1.6c54.7-30.6,145.9-23.1,196,9c50.1,32.1,11.7,142.8,11.7,142.8
			L983.1,943.1l-208.2-32.8L790.2,686z"/>
		<path class="st20" d="M884,736.9c0,0-83,3.8-41,4.6s32-2.5,72-2.2S915,735.2,884,736.9z"/>
		<path class="st21" d="M899.5,746.9c0,0-46.1,3.8-22.8,4.6c23.3,0.7,17.8-2.5,40-2.2S916.7,745.2,899.5,746.9z"/>
		<path class="st21" d="M1084.6,710.9c0,0-51,3.8-25.2,4.6c25.8,0.7,19.7-2.5,44.2-2.2S1103.7,709.2,1084.6,710.9z"/>
		<path class="st20" d="M1066,698.9c0,0-83,3.8-41,4.6s32-2.5,72-2.2S1097,697.2,1066,698.9z"/>
		<path class="st20" d="M1020.7,769c0,0,30.5,12.1,42.1,2.3c7.4-6.3-30-5.5-68.7-15.6C955.3,745.6,989.6,765.6,1020.7,769z"/>
	</g>
	<g class="st1">
		<path class="st22" d="M830.8,572.1c0,0-8.8,117.9-13.3,157.2c-4.7,41.1-23.8,164-23.8,164l-883.5,49.7l-15.4-274.3L830.8,572.1"/>
		<polygon class="st23" points="841,577.8 836,680 816,710 769,679 716,692 676.6,676.9 586.8,666.9 567.6,687.9 507.1,687.9
			449.6,668.9 383,687.9 335.6,687.9 308.4,687.9 285.2,687.9 265,707 215.6,694 169,688 129.8,698 102.6,739 52.1,721 -195,705
			-104.2,687.9 		"/>
		<path class="st22" d="M-111.4,545.4L593.4,506L841,535.8v42c0,0-332.3,81.8-944.3,110.3L-111.4,545.4z"/>
	</g>
	<g class="st1">
		<path class="st24" d="M1106,502.3c0,0,25,373.3,38.8,414.6c13.8,41.3,24.8,77.1,24.8,77.1h471V462.4L1106,502.3"/>
		<path class="st25" d="M1099,502.3l5.7,80.3c0,0,28,50.6,55.9,25.8c27.9-24.8,53,0,80.9,5.5c27.9,5.5,19.5-16.5,94.9,0
			c75.3,16.5,47.4-5.5,108.8,8.3c61.4,13.8,69.8-8.3,120,8.3c50.2,16.5,75.3,0,75.3,0v-90.2L1099,502.3z"/>
		<path class="st26" d="M1640.6,608.4c0,0-364.3-35.8-518.6-90.9s518.6-129,518.6-129"/>
	</g>
	<path class="st27" d="M1321,498c0,0,142.5-300.8,134.6-354c-7.9-53.2,52.3-107.5,88.7-110.7c36.4-3.3,112.4-28.2,137.8,0
		s26.9,204.1,58.6,250.8s22.2,157.4,38,175.9C1794.4,478.5,1321,498,1321,498z"/>
	<path class="st28" d="M1545.7,112.4c-10.4-3.1,0,0-9.5-5.4c-14.3-8.1-51.6-28.1-50.5,19.8c1.6,74.1,27.6,45.2,26,153.5
		s-73.6,89.7-40.4,167.2c33.1,77.6,86.8,1.2,86.8,1.2s41.4,101.2,36.5-51.9c-4.9-153.1,26-146.5,11.4-225.5
		C1594,106.9,1573.9,120.6,1545.7,112.4z"/>
	<path class="st29" d="M1326.6,482.2c0,0,67.4-228.1,63.7-268.5s24.7-81.5,41.9-84c17.2-2.5,53.2-21.4,65.2,0s12.7,154.8,27.7,190.2
		c15,35.4,10.5,119.4,18,133.4C1550.6,467.4,1326.6,482.2,1326.6,482.2z"/>
	<path class="st29" d="M1587.1,503.3c0,0,4.6-176.3-9.2-201.9s2.2-63.2,17.7-71c15.5-7.8,44.2-33.3,60.9-23.3
		c16.7,10,51.5,98.7,74.5,117c23,18.3,40.3,75.9,50.9,82.6C1792.4,413.2,1587.1,503.3,1587.1,503.3z"/>
	<path class="st28" d="M1602.8,445.5c0,0-182.9-32.3-269.6,15.3c-86.7,47.6,20.8,32.7,52.5,55.7c31.7,23,70.4,18,161.3,10.6
		c90.9-7.4,139.4-29,139.4-29L1602.8,445.5z"/>
	<g class="st1">
		<path class="st30" d="M1343.5,482.2c0,0-38.9,9.8-12.2,23.8s24.4-8,24.4-8S1359.1,485.4,1343.5,482.2z"/>
		<path class="st31" d="M1340.5,482.2c0,0-33.5,9.8-10.5,23.8s21-8,21-8S1353.9,485.4,1340.5,482.2z"/>
	</g>
	<g class="st1">
		<path class="st30" d="M1364.8,503.2c0,0-8.9-3.2-7.2,4.3s6,1.5,6,1.5S1366.8,506.3,1364.8,503.2z"/>
		<path class="st31" d="M1364.3,502.7c0,0-8-2.4-6.9,4.5s5.4,1,5.4,1S1365.9,505.5,1364.3,502.7z"/>
	</g>
	<path class="st32" d="M1537.3,279.7c0,0,4,83.8,15.1,106.1c7.1,14.2-8.3-78.3-16.9-181.2C1526.9,101.6,1527.3,200.2,1537.3,279.7z"
		/>
	<path class="st32" d="M1494.4,505.3c0,0,85.3-5.9,108.7-14.4c14.9-5.4-27.4,10.9-130.7,7.7C1369.1,495.4,1414.2,506.2,1494.4,505.3
		z"/>
	<path class="st33" d="M1529.7,493.5c0,0,65.6-2.6,83.6-7c11.5-2.8-21.1,5.6-100.6,3.3C1433.2,487.5,1468,493.5,1529.7,493.5z"/>
	<path class="st32" d="M1568.7,166.2c0,0-5.2,21.7-1.9,28.5c2.1,4.3,2.8-20.7,7.4-47.8S1570.7,145,1568.7,166.2z"/>
	<path class="st33" d="M1575.9,186.3c0,0-1.8,22.3,2.4,28.5c2.7,4-0.4-20.9,0.1-48.4S1574.7,165,1575.9,186.3z"/>
	<path class="st33" d="M1539,216.1c0,0,3.3,53.9,8.6,68.4c3.4,9.2-5.1-50.4-10.7-116.6C1531.3,101.6,1533.2,164.9,1539,216.1z"/>
</g>
<g id="bro" class="st0">
	<g class="st1">
		<polygon class="st34" points="1036.7,574.3 994.8,578 991.9,568.3 1033.8,564.5 		"/>
		<polygon class="st34" points="988.6,536.7 946.8,540.4 944,530.6 985.8,526.9 		"/>
		<polygon class="st35" points="944,530.6 991.9,568.3 1033.8,564.5 985.8,526.9 		"/>
		<polygon class="st36" points="946.8,540.4 944,530.6 991.9,568.3 994.8,578 		"/>
	</g>
	<g class="st1">
		<polygon class="st34" points="1088.1,556.7 1046.3,560.4 1043.3,550.6 1085.3,546.8 		"/>
		<polygon class="st34" points="1040.1,519.1 998.2,522.8 995.4,512.9 1037.3,509.2 		"/>
		<polygon class="st35" points="995.4,512.9 1043.3,550.6 1085.3,546.8 1037.3,509.2 		"/>
		<polygon class="st36" points="998.2,522.8 995.4,512.9 1043.3,550.6 1046.3,560.4 		"/>
	</g>
	<g class="st1">
		<polygon class="st34" points="1129.3,538.3 1087.5,542 1084.6,532.2 1126.5,528.5 		"/>
		<polygon class="st34" points="1081.3,500.7 1039.5,504.4 1036.7,494.5 1078.5,490.9 		"/>
		<polygon class="st35" points="1036.7,494.5 1084.6,532.2 1126.5,528.5 1078.5,490.9 		"/>
		<polygon class="st36" points="1039.5,504.4 1036.7,494.5 1084.6,532.2 1087.5,542 		"/>
	</g>
	<g class="st1">
		<polygon class="st34" points="974.7,575.5 932.9,579.2 930,569.4 971.9,565.6 		"/>
		<polygon class="st34" points="926.7,537.9 884.9,541.6 882,531.7 923.9,528 		"/>
		<polygon class="st35" points="882,531.7 930,569.4 971.9,565.6 923.9,528 		"/>
		<polygon class="st36" points="884.9,541.6 882,531.7 930,569.4 932.9,579.2 		"/>
	</g>
	<g class="st1">
		<polygon class="st34" points="913.7,575.5 871.8,579.2 868.9,569.4 910.8,565.6 		"/>
		<polygon class="st34" points="865.6,537.9 823.8,541.6 821,531.7 862.8,528 		"/>
		<polygon class="st35" points="821,531.7 868.9,569.4 910.8,565.6 862.8,528 		"/>
		<polygon class="st36" points="823.8,541.6 821,531.7 868.9,569.4 871.8,579.2 		"/>
	</g>
	<path class="st37" d="M1134.5,521.3c0,0-4.1-24.5,4.1-24.5s8.2,22.8,8.2,22.8L1134.5,521.3z"/>
</g>
<g id="forgrund" class="st0">
	<g class="st1">
		<path class="st38" d="M988.1,965.8l176.2-143.1c0,0-52.3-92.9,101-65.5s238.5,31.1,238.5,31.1l39.8,95.1l-13.5,95.1L988.1,965.8z"
			/>
		<polygon class="st39" points="-125,922 -125,718.2 87,645 314,733 430.5,839.7 416.9,934.9 		"/>
		<path class="st40" d="M1296.5,965.8l73.7-190.9c0,0,99.1-96.3,252.3-68.9c153.3,27.4,189.7,82.3,189.7,82.3l39.8,95.1l-13.5,95.1
			L1296.5,965.8z"/>
		<polygon class="st41" points="199.5,1053.2 273.2,862.3 525.5,793.4 779.7,839.9 755,970.9 741.4,1066 		"/>
		<path class="st42" d="M1465,914.6c0,0,28.1-208.1,54.3-272.4c16.7-41,57.3-88.3,170.2-49.2c112.9,39.1,155.5,68.3,155.5,68.3
			l29.3,135.8l-10,135.8L1465,914.6z"/>
		<polygon class="st43" points="625,1023.1 698.6,809.6 902.2,778.5 1070.9,835.2 1180.5,931.1 1166.9,1037.5 		"/>
	</g>
</g>
<g id="Karakterer" class="st0">
	<g class="st1">
		<path class="st44" d="M36.5,299.9c7.6-21.5,43.3-56.3,108.5-6.3s57.3,73.9,66.6,99.5c5.7,15.7,28.6,18.8,23.3,62.6
			c-5.3,43.8-19.3,19.4-13.3,84.5c4.1,44.9,8.1,39.1,18,45c8.3,5,7.3,29.4-26.6,28.8s-84.6-15.6-128.5-8.1
			C40.5,613.4-46,602.1-46,602.1s-34.6,1.9-20.6-31.9s20-44.4,17.3-73.2c-2.7-28.8,21.2-82.8,25.3-95.1
			C-2.1,336.2,14.6,361.9,36.5,299.9z"/>
		<path class="st45" d="M67.9,363.7c1-13.5,11.4-22.9,23.6-18.5c13.4,4.9,25.2,12.6,24.2,26.1s-16.6,10.9-30.1,15.3
			C71.6,391.2,66.9,377.2,67.9,363.7z"/>
		<path class="st45" d="M134.7,356c2.8-14.6,15.4-23.7,28.2-17.5c14,6.9,25.9,16.7,23,31.3s-19.5,10-34.9,13.3
			C135.3,386.5,131.9,370.6,134.7,356z"/>
		<path d="M95.5,350.4l-47.4-4.7c-4-1.8-8.6-5.6-6.3-10h0c2.3-4.4,17.7-1.8,21.7,0l37.2,7.1c4,1.8,17,6.6,14.7,11l-0.8,3.9
			C112.3,362.2,99.4,352.2,95.5,350.4z"/>
		<path d="M163.5,332.2l-30.5,20c-3.3,0.7-8.1,0.5-9.1-3.5l0,0c-1-4.1,9.5-9.8,12.8-10.6l25.8-13.4c3.3-0.7,13.6-4,14.6,0.1l1.7,3
			C179.8,331.8,166.8,331.5,163.5,332.2z"/>
		<path class="st46" d="M166.5,364.6c0.7-3.6,3.8-5.8,6.9-4.3c3.4,1.7,6.3,4.1,5.6,7.6c-0.7,3.6-4.8,2.4-8.5,3.2
			C166.7,372.1,165.8,368.2,166.5,364.6z"/>
		<path class="st46" d="M95.3,370.3c0.7-3.6,3.8-5.8,6.9-4.3c3.4,1.7,6.3,4.1,5.6,7.6c-0.7,3.6-4.8,2.4-8.5,3.2
			C95.4,377.7,94.6,373.8,95.3,370.3z"/>
		<path d="M200.4,436.9c4,11.3-27.1,11.3-65.9,17.1c-17.5,2.6-26.6-0.2-38.1,1.4c-13.1,1.9-18.3-8.2-23.1-15.5
			c-4.7-7.1,2.9-9.5,2-16.2c-1.3-9.4,6.2-12.3,21.6-14.6c9.5-1.4,21.4,2.4,37,0.2C187.7,401.9,193.7,418.2,200.4,436.9z"/>
		<path class="st44" d="M103.1,408.2c0,0,4.7,3.1,4.7,19.4c0,16.3,3.6,28.8,3.6,28.8s5.1,7.5,7.7,4.4c2.7-3.1-4.7-27.5-3.3-34.4
			c1.3-6.9,7.3-20,2-23.8C112.5,398.8,103.1,408.2,103.1,408.2z"/>
		<path class="st44" d="M82.5,408.2c0,0,2,3.1,2,19.4c0,16.3,1.5,28.8,1.5,28.8s2.2,7.5,3.3,4.4c1.1-3.1-2-27.5-1.4-34.4
			c0.6-6.9,3.1-20,0.9-23.8C86.5,398.8,82.5,408.2,82.5,408.2z"/>
		<path class="st44" d="M162.4,457.1c0,0-13.3-20.6-13.3-36.9s-0.2-17.5-0.2-17.5s-5.1-7.5-7.7-4.4s6.7,40,5.3,46.9s-9.3,7.5-4,11.3
			C147.8,460.3,162.4,457.1,162.4,457.1z"/>
		<path class="st44" d="M197,455.3c0,0-13.3-20.6-13.3-36.9c0-16.3-0.2-17.5-0.2-17.5s-5.1-7.5-7.7-4.4s6.7,40,5.3,46.9
			s-9.3,7.5-4,11.3C182.4,458.4,197,455.3,197,455.3z"/>
	</g>
	<g class="st1">
		<path class="st47" d="M718.4,529c-11.2-22.9-8-20.6-8-28c0-7,18.7-120.4-54.9-120.1S575,424.1,575,424.1s-8.4,45.8,20.4,65.2
			c16.3,11-25.7,32.3-25.7,32.3s-5.9,2.9,0,7.3c5.9,4.4-7.8,0-7.8,0s-4.7,2-3.5,5.5c-0.5,0-1,0-1.5,0c-7.6,0.5-15.3-2.3-14.8,2.8
			c0.4,5.1,9,1.9,9,1.9s3.1-1.4,5.8,0.5c1.2,0.9,3.4-0.3,4.4-1.7c0.7,0.5,1.5,1.1,2.5,1.7c11.3,6.6,101.7,2.8,126.8-4.6
			C701,531.8,728.7,549.8,718.4,529z"/>
		<path class="st48" d="M685.6,457l-36.9,4.4c-3.7,0-8.5,2.4-8.5,0.9c0,0-0.9-0.6-0.9-0.9c0-1.4,13.3-4.4,17-4.4l30.2-2.6
			c3.7,0,15.1-0.3,15.1,1.1l0.9,1.1C702.6,458.1,689.2,457,685.6,457z"/>
		<path class="st46" d="M644.3,438.1c0.4-6.4,5.1-10.9,10.6-8.8c6,2.3,11.3,6,10.8,12.4c-0.4,6.4-7.4,5.2-13.5,7.3
			C646,451.2,643.8,444.5,644.3,438.1z"/>
		<path class="st46" d="M671.8,436.5c1.3-7,6.9-11.3,12.6-8.3c6.3,3.3,11.6,7.9,10.3,14.9c-1.3,7-8.7,4.7-15.6,6.3
			C672.1,451,670.5,443.5,671.8,436.5z"/>
		<ellipse transform="matrix(0.9927 -0.121 0.121 0.9927 -48.5434 86.7241)" cx="689.8" cy="443.1" rx="3.5" ry="3.5"/>
		<ellipse transform="matrix(0.9927 -0.121 0.121 0.9927 -48.694 83.2832)" cx="661.4" cy="442.6" rx="3" ry="3"/>
		<path class="st48" d="M658.8,427l-18.2,5.6c-1.8,0-4.2-0.5-4.2-2.3l0,0c0-1.8,6.1-3.3,7.9-3.3l14.9-3.3c1.8,0,7.4-0.4,7.4,1.4
			l0.5,1.4C667.2,428.3,660.6,427,658.8,427z"/>
		<path class="st48" d="M690.3,427l-16.6,0.5c-1.5-0.5-3.3-1.6-2.7-3.3l0,0c0.5-1.7,6-1.5,7.5-1l13.2,0.8c1.5,0.5,6.2,1.6,5.7,3.3
			l0,1.5C696.8,430.5,691.8,427.5,690.3,427z"/>
	</g>
</g>
<g id="Layer_9" class="st0">
	<g class="st1">
		<path class="st17" d="M-179.8,198.1c-11.2-22.9-8-20.6-8-28c0-7,18.7-120.4-54.9-120.1c-73.6,0.4-80.5,43.2-80.5,43.2
			s-8.4,45.8,20.4,65.2c16.3,11-25.7,32.3-25.7,32.3s-5.9,2.9,0,7.3c5.9,4.4-7.8,0-7.8,0s-4.7,2-3.5,5.5c-0.5,0-1,0-1.5,0
			c-7.6,0.5-15.3-2.3-14.8,2.8c0.4,5.1,9,1.9,9,1.9s3.1-1.4,5.8,0.5c1.2,0.9,3.4-0.3,4.4-1.7c0.7,0.5,1.5,1.1,2.5,1.7
			c11.3,6.6,101.7,2.8,126.8-4.6C-197.2,200.9-169.6,218.9-179.8,198.1z"/>
		<path class="st48" d="M-212.7,126.1l-36.9,4.4c-3.7,0-8.5,2.4-8.5,0.9c0,0-0.9-0.6-0.9-0.9c0-1.4,13.3-4.4,17-4.4l30.2-2.6
			c3.7,0,15.1-0.3,15.1,1.1l0.9,1.1C-195.7,127.2-209,126.1-212.7,126.1z"/>
		<path class="st46" d="M-253.9,107.2c0.4-6.4,5.1-10.9,10.6-8.8c6,2.3,11.3,6,10.8,12.4c-0.4,6.4-7.4,5.2-13.5,7.3
			C-252.2,120.3-254.4,113.6-253.9,107.2z"/>
		<path class="st46" d="M-226.4,105.6c1.3-7,6.9-11.3,12.6-8.3c6.3,3.3,11.6,7.9,10.3,14.9c-1.3,7-8.7,4.7-15.6,6.3
			C-226.2,120.1-227.7,112.6-226.4,105.6z"/>
		<ellipse transform="matrix(0.9927 -0.121 0.121 0.9927 -15.1044 -24.3944)" cx="-208.4" cy="112.2" rx="3.5" ry="3.5"/>
		<ellipse transform="matrix(0.9927 -0.121 0.121 0.9927 -15.2549 -27.8352)" cx="-236.8" cy="111.7" rx="3" ry="3"/>
		<path class="st48" d="M-239.4,96.1l-18.2,5.6c-1.8,0-4.2-0.5-4.2-2.3l0,0c0-1.8,6.1-3.3,7.9-3.3l14.9-3.3c1.8,0,7.4-0.4,7.4,1.4
			l0.5,1.4C-231,97.4-237.6,96.1-239.4,96.1z"/>
		<path class="st48" d="M-207.9,96.1l-16.6,0.5c-1.5-0.5-3.3-1.6-2.7-3.3v0c0.5-1.7,6-1.5,7.5-1l13.2,0.8c1.5,0.5,6.2,1.6,5.7,3.3
			l0,1.5C-201.5,99.6-206.5,96.6-207.9,96.1z"/>
	</g>
	<g class="st1">
		<path class="st46" d="M-171.9,198.1c-11.2-22.9-8-20.6-8-28c0-7,18.7-120.4-54.9-120.1c-73.6,0.4-80.5,43.2-80.5,43.2
			s-8.4,45.8,20.4,65.2c16.3,11-25.7,32.3-25.7,32.3s-5.9,2.9,0,7.3c5.9,4.4-7.8,0-7.8,0s-4.7,2-3.5,5.5c-0.5,0-1,0-1.5,0
			c-7.6,0.5-15.3-2.3-14.8,2.8c0.4,5.1,9,1.9,9,1.9s3.1-1.4,5.8,0.5c1.2,0.9,3.4-0.3,4.4-1.7c0.7,0.5,1.5,1.1,2.5,1.7
			c11.3,6.6,101.7,2.8,126.8-4.6C-189.3,200.9-161.6,218.9-171.9,198.1z"/>
		<path class="st48" d="M-204.7,126.1l-36.9,4.4c-3.7,0-8.5,2.4-8.5,0.9c0,0-0.9-0.6-0.9-0.9c0-1.4,13.3-4.4,17-4.4l30.2-2.6
			c3.7,0,15.1-0.3,15.1,1.1l0.9,1.1C-187.7,127.2-201.1,126.1-204.7,126.1z"/>
		<path class="st46" d="M-246,107.2c0.4-6.4,5.1-10.9,10.6-8.8c6,2.3,11.3,6,10.8,12.4c-0.4,6.4-7.4,5.2-13.5,7.3
			C-244.3,120.3-246.4,113.6-246,107.2z"/>
		<path class="st46" d="M-218.5,105.6c1.3-7,6.9-11.3,12.6-8.3c6.3,3.3,11.6,7.9,10.3,14.9c-1.3,7-8.7,4.7-15.6,6.3
			C-218.2,120.1-219.7,112.6-218.5,105.6z"/>
		<ellipse transform="matrix(0.9927 -0.121 0.121 0.9927 -15.046 -23.433)" cx="-200.5" cy="112.2" rx="3.5" ry="3.5"/>
		<ellipse transform="matrix(0.9927 -0.121 0.121 0.9927 -15.1966 -26.8738)" cx="-228.9" cy="111.7" rx="3" ry="3"/>
		<path class="st48" d="M-231.5,96.1l-18.2,5.6c-1.8,0-4.2-0.5-4.2-2.3l0,0c0-1.8,6.1-3.3,7.9-3.3l14.9-3.3c1.8,0,7.4-0.4,7.4,1.4
			l0.5,1.4C-223.1,97.4-229.7,96.1-231.5,96.1z"/>
		<path class="st48" d="M-200,96.1l-16.6,0.5c-1.5-0.5-3.3-1.6-2.7-3.3v0c0.5-1.7,6-1.5,7.5-1l13.2,0.8c1.5,0.5,6.2,1.6,5.7,3.3
			l0,1.5C-193.5,99.6-198.5,96.6-200,96.1z"/>
	</g>
	<polyline class="st49" points="-126.8,-317.3 -356.2,-317.3 -356.2,-546.7 	"/>
	<g class="st1">
		<g>
			<path class="st50" d="M366.5-583.8c-81.5,0-147.5,66-147.5,147.5s66,147.5,147.5,147.5S514-354.9,514-436.3"/>
			<g>
				<polygon class="st51" points="349,-643.7 452.6,-583.8 349,-524 				"/>
			</g>
		</g>
	</g>

		<image style="display:inline;overflow:visible;" width="1299" height="1300" xlink:href="../../02-01-03_Rentegnede karakterer og scenografi/billeder/51706944-Isometric-3d-set-of-flying-islands-Landscape-cartoon-nature-land-fantasy-rock-and-ground-and-mountai-Stock-Vector.jpg"  transform="matrix(0.72 0 0 0.72 -144.3696 1092.8406)">
	</image>
</g>
</svg>
