<svg xmlns="http://www.w3.org/2000/svg" width="325.78" height="88.31" viewBox="0 0 325.78 88.31"><defs><style>.cls-1{fill:#704311;}.cls-2{fill:#9e754c;}.cls-3{fill:#915d2d;}.cls-4{fill:none;}</style></defs><title>Asset 4</title><g id="Layer_2" data-name="Layer 2"><g id="bro"><polygon class="cls-1" points="215.69 83.49 173.84 87.17 170.94 77.44 212.87 73.65 215.69 83.49"/><polygon class="cls-1" points="167.68 45.89 125.83 49.57 123 39.73 164.85 36.05 167.68 45.89"/><polygon class="cls-2" points="123 39.73 170.94 77.44 212.87 73.65 164.85 36.05 123 39.73"/><polygon class="cls-3" points="125.83 49.57 123 39.73 170.94 77.44 173.84 87.17 125.83 49.57"/><polygon class="cls-1" points="267.14 65.83 225.29 69.51 222.38 59.77 264.31 55.99 267.14 65.83"/><polygon class="cls-1" points="219.13 28.23 177.28 31.91 174.45 22.07 216.3 18.39 219.13 28.23"/><polygon class="cls-2" points="174.45 22.07 222.38 59.77 264.31 55.99 216.3 18.39 174.45 22.07"/><polygon class="cls-3" points="177.28 31.91 174.45 22.07 222.38 59.77 225.29 69.51 177.28 31.91"/><polygon class="cls-1" points="308.38 47.44 266.54 51.12 263.63 41.38 305.56 37.6 308.38 47.44"/><polygon class="cls-1" points="260.37 9.84 218.52 13.52 215.69 3.68 257.54 0 260.37 9.84"/><polygon class="cls-2" points="215.69 3.68 263.63 41.38 305.56 37.6 257.54 0 215.69 3.68"/><polygon class="cls-3" points="218.52 13.52 215.69 3.68 263.63 41.38 266.54 51.12 218.52 13.52"/><polygon class="cls-1" points="153.76 84.63 111.92 88.31 109.01 78.57 150.94 74.79 153.76 84.63"/><polygon class="cls-1" points="105.75 47.03 63.9 50.71 61.07 40.87 102.92 37.19 105.75 47.03"/><polygon class="cls-2" points="61.07 40.87 109.01 78.57 150.94 74.79 102.92 37.19 61.07 40.87"/><polygon class="cls-3" points="63.9 50.71 61.07 40.87 109.01 78.57 111.92 88.31 63.9 50.71"/><polygon class="cls-1" points="92.69 84.63 50.84 88.31 47.94 78.57 89.86 74.79 92.69 84.63"/><polygon class="cls-1" points="44.68 47.03 2.83 50.71 0 40.87 41.85 37.19 44.68 47.03"/><polygon class="cls-2" points="0 40.87 47.94 78.57 89.86 74.79 41.85 37.19 0 40.87"/><polygon class="cls-3" points="2.83 50.71 0 40.87 47.94 78.57 50.84 88.31 2.83 50.71"/><path class="cls-4" d="M313.52,30.44S309.43,5.93,317.6,5.93s8.17,22.77,8.17,22.77Z"/></g></g></svg>
