<svg xmlns="http://www.w3.org/2000/svg" width="1607.29" height="859" viewBox="0 0 1607.29 859"><defs><style>.cls-1{fill:#848484;}.cls-2{fill:#7c7c7c;}.cls-3{fill:#c1c1c1;}.cls-4{fill:#d8d8d8;}.cls-5{fill:#c3c2c4;}</style></defs><title>Asset 5</title><g id="Layer_2" data-name="Layer 2"><g id="mellemgrund_objekter"><polygon class="cls-1" points="244.05 239 195.89 310.81 254.52 369.44 244.05 239"/><polygon class="cls-1" points="64.94 36.97 33.29 90.09 67.74 127.98 64.94 36.97"/><polygon class="cls-1" points="140.05 142.15 110.61 192.22 144.05 212.21 140.05 142.15"/><polygon class="cls-1" points="189.05 202.06 147.22 241.35 196.05 264 189.05 202.06"/><path class="cls-2" d="M16,0S203.9,615.62,1098.16,856L0,856.45Z"/><path class="cls-2" d="M64.94,37S252.79,626,1147,856H64.94Z"/><path class="cls-2" d="M139.9,142.15S272.66,648.82,904.64,846.61H139.9Z"/><path class="cls-2" d="M244,238.87s144.61,437.25,833,607.95H244Z"/><path class="cls-2" d="M189,202.31s144.61,472.3,833,656.69H189Z"/><path class="cls-3" d="M1480.09,313.38s59,9.62,66,67.62l7,58-46,58Z"/><path class="cls-4" d="M1130,842s148.5-333.47,140.25-392.46,54.45-119.18,92.4-122.79,117.15-31.3,143.55,0,28,226.33,61,278.09,23.1,174.56,39.6,195S1130,842,1130,842Z"/><path class="cls-5" d="M1314.46,351.77s36.93,4.86,88.55-4l51.62-8.89,7.21-26.84S1333.73,315.26,1314.46,351.77Z"/></g></g></svg>
