<svg xmlns="http://www.w3.org/2000/svg" width="1977.25" height="974" viewBox="0 0 1977.25 974"><defs><style>.cls-1{fill:#494949;}.cls-2{fill:#383838;}.cls-3{fill:#a5a5a5;}.cls-4{fill:#2e893b;}.cls-5{fill:#3eb554;}.cls-6{fill:#a0a0a0;}.cls-7{fill:#00a4ff;}.cls-8{fill:#b2b2b2;}.cls-9{fill:#aaa;}.cls-10{fill:#b7b7b7;}.cls-11{fill:#0e8bc1;}.cls-12{fill:#7fcae5;}</style></defs><title>Asset 5</title><g id="Layer_2" data-name="Layer 2"><g id="mellemgrund"><path class="cls-1" d="M1025.85,552.14s-8.76,117.93-13.27,157.19c-4.72,41.07-23.84,164-23.84,164l-883.5,49.71L89.79,648.73l936.05-96.59"/><polygon class="cls-2" points="1036 557.82 1031 660 1011 690 964 659 911 672 871.57 656.93 781.79 646.92 762.63 667.94 702.1 667.94 644.6 648.92 578.02 667.94 530.61 667.94 503.37 667.94 480.17 667.94 460 686.96 410.57 673.95 364 668 324.82 677.95 297.58 719 247.15 700.98 0 684.96 90.79 667.94 1036 557.82"/><path class="cls-1" d="M83.59,525.35,788.4,486,1036,515.77v42S703.73,639.63,91.69,668.15Z"/><path class="cls-3" d="M1301,482.29s25,373.27,38.81,414.58S1364.57,974,1364.57,974h471V442.39L1301,482.29"/><path class="cls-4" d="M1294,482.29l5.75,80.28s28,50.59,55.89,25.8,53,0,80.93,5.51,19.53-16.53,94.88,0,47.44-5.51,108.83,8.26,69.76-8.26,120,8.26,75.34,0,75.34,0V520.24Z"/><path class="cls-5" d="M1835.62,588.37s-364.3-35.81-518.62-90.9,518.62-129,518.62-129"/><path class="cls-6" d="M1516,478s142.51-300.75,134.59-354,52.25-107.49,88.67-110.75,112.42-28.23,137.76,0,26.92,204.12,58.59,250.81,22.17,157.43,38,175.89S1516,478,1516,478Z"/><path class="cls-7" d="M1740.67,92.36c-10.44-3.06,0,0-9.48-5.39-14.27-8.1-51.59-28.09-50.54,19.75,1.63,74.08,27.63,45.19,26,153.47s-73.56,89.65-40.43,167.24,86.76,1.19,86.76,1.19,41.42,101.18,36.55-51.92,26-146.51,11.38-225.53C1789,86.94,1768.91,100.64,1740.67,92.36Z"/><path class="cls-8" d="M1521.59,462.22S1589,234.1,1585.26,193.74s24.72-81.53,41.95-84,53.18-21.41,65.17,0S1705.1,264.57,1720.08,300s10.49,119.42,18,133.42S1521.59,462.22,1521.59,462.22Z"/><path class="cls-8" d="M1782.08,483.26s4.63-176.29-9.18-201.87,2.24-63.23,17.69-71S1834.79,177,1851.45,187s51.47,98.72,74.51,117,40.32,75.9,50.89,82.56S1782.08,483.26,1782.08,483.26Z"/><path class="cls-7" d="M1797.84,425.46s-182.92-32.28-269.61,15.29,20.82,32.71,52.52,55.71,70.39,18,161.32,10.63,139.38-29,139.38-29Z"/><path class="cls-9" d="M1538.45,462.22S1499.59,472,1526.3,486s24.39-8,24.39-8S1554.09,465.44,1538.45,462.22Z"/><path class="cls-10" d="M1535.46,462.22S1502,472,1525,486s21-8,21-8S1548.93,465.44,1535.46,462.22Z"/><path class="cls-9" d="M1559.78,483.17s-8.92-3.22-7.23,4.29,6,1.54,6,1.54S1561.83,486.29,1559.78,483.17Z"/><path class="cls-10" d="M1559.25,482.73s-8-2.42-6.93,4.54,5.4,1,5.4,1S1560.93,485.53,1559.25,482.73Z"/><path class="cls-11" d="M1732.3,259.7s4,83.8,15.15,106.08c7.09,14.21-8.27-78.26-16.89-181.22S1722.28,180.21,1732.3,259.7Z"/><path class="cls-11" d="M1689.35,485.3s85.28-5.94,108.69-14.44c14.92-5.42-27.44,10.89-130.71,7.71S1609.23,486.19,1689.35,485.3Z"/><path class="cls-12" d="M1724.69,473.55s65.61-2.64,83.57-7c11.45-2.8-21.06,5.63-100.57,3.32S1663,473.53,1724.69,473.55Z"/><path class="cls-11" d="M1763.65,146.22s-5.17,21.73-1.95,28.5c2.06,4.32,2.77-20.74,7.44-47.81S1765.72,125,1763.65,146.22Z"/><path class="cls-12" d="M1770.85,166.34s-1.82,22.26,2.39,28.47c2.69,4-.41-20.92.11-48.38S1769.68,145,1770.85,166.34Z"/><path class="cls-12" d="M1734,196.08s3.26,53.85,8.62,68.35c3.42,9.24-5.06-50.38-10.72-116.61S1728.18,144.88,1734,196.08Z"/></g></g></svg>
